<svg height="1em" width="1em" fill="currentColor" xmlns="http://www.w3.org/2000/svg" viewBox="0 0 20 20">
  <path d="M14.05,0a5.4,5.4,0,0,0-4,2V2l0,0A5.4,5.4,0,0,0,6,0C1.47,0-2.39,6.38,1.79,11L10,20h0l0,0,8.19-9C22.39,6.39,18.53,0,14.05,0Zm3.42,10.31L10,18.53,2.53,10.31c-.09-.1-.17-.21-.25-.31H7.5A.49.49,0,0,0,8,9.62l.59-2.33L10,11.66a.5.5,0,0,0,.47.34h0a.49.49,0,0,0,.46-.38l.68-2.69.39.79a.51.51,0,0,0,.45.28h1.15a1,1,0,1,0,0-1h-.84L12,7.28a.51.51,0,0,0-.5-.28.54.54,0,0,0-.44.38l-.58,2.33L9,5.34a.49.49,0,0,0-1,0L7.11,9H1.61a5.44,5.44,0,0,1-.12-4.73A5.19,5.19,0,0,1,6,1,4.51,4.51,0,0,1,9.27,2.67,1,1,0,0,0,10,3a1.06,1.06,0,0,0,.75-.33A4.43,4.43,0,0,1,14.05,1a5.18,5.18,0,0,1,4.46,3.28A5.41,5.41,0,0,1,17.47,10.32Z"/>
</svg>
