<svg width="1em" height="1em" fill="currentColor" xmlns="http://www.w3.org/2000/svg" viewBox="0 0 100 100">
  <path d="M69.22,11.43H69a29.36,29.36,0,0,0-19,7.33c-6.07-5.49-11.81-8.28-17.08-8.28a26.16,26.16,0,0,0-18.86,8,27.6,27.6,0,0,0-7.7,20.93A2.46,2.46,0,0,0,9,41.72a2.5,2.5,0,0,0,2.34-2.65,22.6,22.6,0,0,1,6.29-17.14,21.2,21.2,0,0,1,15.28-6.46c4.32,0,9.56,2.88,15.17,8.34a2.72,2.72,0,0,0,3.83,0A24.56,24.56,0,0,1,69,16.43h.15a18.17,18.17,0,0,1,13.18,5.5,22.75,22.75,0,0,1,.05,31.43l-32.14,31a.39.39,0,0,1-.56,0l-22-21.25a2.5,2.5,0,1,0-3.47,3.6L46.24,88a5.38,5.38,0,0,0,7.51,0L85.94,56.91a27.74,27.74,0,0,0,0-38.46A23.07,23.07,0,0,0,69.22,11.43Z"/>
  <path d="M29.32,56.48a2.5,2.5,0,0,0,4.45-.42L39,42.53l5,19.75a2.5,2.5,0,0,0,2.13,1.87l.29,0a2.5,2.5,0,0,0,2.21-1.34l6.25-12L57,54.61a2.5,2.5,0,0,0,2.18,1.28h4.75a5.58,5.58,0,1,0-.42-5H60.64L57,44.39a2.56,2.56,0,0,0-2.22-1.28,2.5,2.5,0,0,0-2.18,1.34L47.25,54.7l-5.3-21a2.5,2.5,0,0,0-4.75-.29L30.91,49.6,27.43,44a2.5,2.5,0,0,0-2.12-1.17h0a2.5,2.5,0,0,0-2.12,1.19L19,50.89h-6.8a2.5,2.5,0,0,0,0,5h8.2a2.5,2.5,0,0,0,2.13-1.19l2.84-4.61Z"/>
</svg>
